<?xml version="1.0" encoding="UTF-8" standalone="no"?>
<!DOCTYPE svg PUBLIC "-//W3C//DTD SVG 1.1//EN" "http://www.w3.org/Graphics/SVG/1.1/DTD/svg11.dtd">
<svg width="100%" height="100%" viewBox="0 0 178 178" version="1.1" xmlns="http://www.w3.org/2000/svg" xmlns:xlink="http://www.w3.org/1999/xlink" xml:space="preserve" xmlns:serif="http://www.serif.com/" style="fill-rule:evenodd;clip-rule:evenodd;stroke-linecap:round;stroke-linejoin:round;stroke-miterlimit:1.5;">
    <g transform="matrix(1.09262,0,0,1.09262,-16.4097,-10.832)">
        <circle cx="96.092" cy="90.987" r="81.073"/>
    </g>
    <g id="Black-Magic" serif:id="Black Magic">
        <g id="Magic" transform="matrix(1,0,0,1,5.42913,52.5118)">
            <g id="C" transform="matrix(1,0,0,1,7.97244,15.3543)">
                <path d="M118.11,23.622L138.189,23.622" style="fill:none;stroke:white;stroke-width:1.67px;"/>
                <path d="M118.11,35.433L138.189,35.433" style="fill:none;stroke:white;stroke-width:1.67px;"/>
                <g transform="matrix(1.28571,0,0,2,-33.7458,-23.622)">
                    <path d="M118.11,23.622C115.827,23.622 113.976,24.944 113.976,26.575C113.976,28.206 115.827,29.528 118.11,29.528C115.827,29.528 113.976,28.206 113.976,26.575C113.976,24.944 115.827,23.622 118.11,23.622Z" style="fill:none;stroke:white;stroke-width:0.99px;"/>
                </g>
            </g>
            <g id="I">
                <path d="M116.339,38.976L116.339,50.787" style="fill:none;stroke:white;stroke-width:1.67px;"/>
            </g>
            <g id="G" transform="matrix(1,0,0,1,-25.689,15.3543)">
                <g transform="matrix(1,0,0,1,25.689,-15.3543)">
                    <path d="M112.5,50.787L112.5,44.291L107.48,44.291" style="fill:none;stroke:white;stroke-width:1.67px;"/>
                </g>
                <path d="M118.11,23.622L138.189,23.622" style="fill:none;stroke:white;stroke-width:1.67px;"/>
                <path d="M118.11,35.433L138.189,35.433" style="fill:none;stroke:white;stroke-width:1.67px;"/>
                <g transform="matrix(1.28571,0,0,2,-33.7458,-23.622)">
                    <path d="M118.11,23.622C115.827,23.622 113.976,24.944 113.976,26.575C113.976,28.206 115.827,29.528 118.11,29.528C115.827,29.528 113.976,28.206 113.976,26.575C113.976,24.944 115.827,23.622 118.11,23.622Z" style="fill:none;stroke:white;stroke-width:0.99px;"/>
                </g>
            </g>
            <g id="A" transform="matrix(1,0,0,1,-25.9843,15.3543)">
                <path d="M85.039,35.433L98.031,23.622L111.024,35.433" style="fill:none;stroke:white;stroke-width:1.67px;"/>
                <path d="M88.583,32.185L107.48,32.185" style="fill:none;stroke:white;stroke-width:1.67px;"/>
            </g>
            <g id="M">
                <path d="M35.433,50.787L35.433,38.976L46.063,49.606L56.693,38.976L56.693,50.787" style="fill:none;stroke:white;stroke-width:1.67px;"/>
            </g>
        </g>
        <g id="Black" transform="matrix(1,0,0,1,5.42913,52.5118)">
            <g id="K">
                <path d="M141.732,23.622L141.732,35.433" style="fill:none;stroke:white;stroke-width:1.67px;"/>
                <path d="M141.732,32.48L161.22,23.622" style="fill:none;stroke:white;stroke-width:1.67px;"/>
                <path d="M151.476,28.051L161.22,35.433" style="fill:none;stroke:white;stroke-width:1.67px;"/>
            </g>
            <g id="C1" serif:id="C">
                <path d="M118.11,23.622L138.189,23.622" style="fill:none;stroke:white;stroke-width:1.67px;"/>
                <path d="M118.11,35.433L138.189,35.433" style="fill:none;stroke:white;stroke-width:1.67px;"/>
                <g transform="matrix(1.28571,0,0,2,-33.7458,-23.622)">
                    <path d="M118.11,23.622C115.827,23.622 113.976,24.944 113.976,26.575C113.976,28.206 115.827,29.528 118.11,29.528C115.827,29.528 113.976,28.206 113.976,26.575C113.976,24.944 115.827,23.622 118.11,23.622Z" style="fill:none;stroke:white;stroke-width:0.99px;"/>
                </g>
            </g>
            <g id="A1" serif:id="A">
                <path d="M85.039,35.433L98.031,23.622L111.024,35.433" style="fill:none;stroke:white;stroke-width:1.67px;"/>
                <path d="M88.583,32.185L107.48,32.185" style="fill:none;stroke:white;stroke-width:1.67px;"/>
            </g>
            <g id="L">
                <path d="M62.008,23.622L62.008,33.661" style="fill:none;stroke:white;stroke-width:1.67px;"/>
                <g transform="matrix(0.967742,0,0,1,2.6289,0)">
                    <path d="M63.189,35.433L81.496,35.433" style="fill:none;stroke:white;stroke-width:1.69px;"/>
                </g>
                <g transform="matrix(1.5,0,0,1.5,-29.2323,-19.4882)">
                    <path d="M60.827,35.433C60.827,36.085 61.356,36.614 62.008,36.614C61.356,36.614 60.827,36.085 60.827,35.433Z" style="fill:none;stroke:white;stroke-width:1.11px;"/>
                </g>
            </g>
            <g id="B">
                <g transform="matrix(0.62963,0,0,0.692308,18.0556,-2.74833)">
                    <path d="M58.317,45.768C60.518,45.768 62.303,44.049 62.303,41.929C62.303,39.809 60.518,38.091 58.317,38.091C60.518,38.091 62.303,39.809 62.303,41.929C62.303,44.049 60.518,45.768 58.317,45.768Z" style="fill:none;stroke:white;stroke-width:2.52px;"/>
                </g>
                <g transform="matrix(0.777778,0,0,0.846154,9.41601,-3.29346)">
                    <path d="M58.317,45.768C60.518,45.768 62.303,44.049 62.303,41.929C62.303,39.809 60.518,38.091 58.317,38.091C60.518,38.091 62.303,39.809 62.303,41.929C62.303,44.049 60.518,45.768 58.317,45.768Z" style="fill:none;stroke:white;stroke-width:2.05px;"/>
                </g>
                <path d="M35.433,23.622L35.433,35.433L54.869,35.433" style="fill:none;stroke:white;stroke-width:1.67px;"/>
                <path d="M35.433,23.622L54.869,23.622" style="fill:none;stroke:white;stroke-width:1.67px;"/>
                <path d="M35.433,28.937L54.869,28.937" style="fill:none;stroke:white;stroke-width:1.67px;"/>
            </g>
        </g>
    </g>
    <g id="Moon" transform="matrix(0.922261,0,0,0.922261,-0.45884,5.7475)">
        <g transform="matrix(0.932203,0,0,0.932203,13.1313,19.7612)">
            <path d="M139.466,49.437C129.127,22.502 103.26,4.724 74.409,4.724C35.949,4.724 4.724,35.949 4.724,74.409C4.724,112.87 35.949,144.094 74.409,144.094C86.642,144.094 98.658,140.875 109.252,134.758C98.658,140.875 86.642,144.094 74.409,144.094C35.949,144.094 4.724,112.87 4.724,74.409C4.724,35.949 35.949,4.724 74.409,4.724C103.26,4.724 129.127,22.502 139.466,49.437Z" style="fill:none;stroke:white;stroke-width:3.88px;"/>
        </g>
        <g transform="matrix(1.0339,0,0,1.0339,5.56426,12.1942)">
            <path d="M121.935,23.445C109.033,11.414 92.05,4.724 74.409,4.724C35.949,4.724 4.724,35.949 4.724,74.409C4.724,112.87 35.949,144.094 74.409,144.094C104.151,144.094 130.615,125.218 140.298,97.097C130.615,125.218 104.151,144.094 74.409,144.094C35.949,144.094 4.724,112.87 4.724,74.409C4.724,35.949 35.949,4.724 74.409,4.724C92.05,4.724 109.033,11.414 121.935,23.445Z" style="fill:none;stroke:white;stroke-width:4.37px;"/>
        </g>
        <g transform="matrix(0.847458,0,0,0.847458,19.4372,26.0671)">
            <path d="M134.141,38.519C121.542,17.551 98.872,4.724 74.409,4.724C35.949,4.724 4.724,35.949 4.724,74.409C4.724,112.87 35.949,144.094 74.409,144.094C96.716,144.094 117.674,133.416 130.786,115.369C117.674,133.416 96.716,144.094 74.409,144.094C35.949,144.094 4.724,112.87 4.724,74.409C4.724,35.949 35.949,4.724 74.409,4.724C98.872,4.724 121.542,17.551 134.141,38.519Z" style="fill:none;stroke:white;stroke-width:2.93px;"/>
        </g>
    </g>
</svg>
